<svg width="51" height="35" viewBox="0 0 51 35" fill="none" xmlns="http://www.w3.org/2000/svg">
<rect width="51" height="35" fill="#1E1E1E"/>
<g id="Slide 16:9 - 2" clip-path="url(#clip0_0_1)">
<rect width="1920" height="5890" transform="translate(-202 -5689)" fill="#171041"/>
<g id="MORE UPDATE &#38; FOOTER ">
<rect id="Rectangle 43" x="-202" y="-958" width="1920" height="1159" fill="#140E3A"/>
<g id="socmed">
<path id="Vector" d="M43.0425 3.06308C39.805 1.7282 36.3348 0.741548 32.7058 0.180512C32.6735 0.17484 32.6401 0.178495 32.6101 0.190973C32.5802 0.203451 32.5552 0.224134 32.5387 0.250158C32.0943 0.964028 31.5992 1.89457 31.2521 2.62972C27.4034 2.10397 23.4905 2.10397 19.6417 2.62972C19.2552 1.81498 18.8193 1.02056 18.3361 0.250158C18.3197 0.223814 18.295 0.202663 18.2651 0.189528C18.2352 0.176392 18.2017 0.171897 18.169 0.176643C14.5421 0.737678 11.0719 1.72433 7.83231 3.06114C7.80444 3.07183 7.78081 3.09006 7.7646 3.11337C1.17962 11.9642 -0.62532 20.5964 0.261282 29.1203C0.263749 29.1412 0.270837 29.1614 0.282114 29.1797C0.293391 29.1979 0.308621 29.2139 0.326878 29.2267C4.17036 31.7851 8.45724 33.734 13.008 34.9918C13.0398 35.0007 13.0737 35.0007 13.1054 34.9917C13.1371 34.9828 13.1651 34.9653 13.1858 34.9415C14.1651 33.7441 15.0328 32.4738 15.78 31.1439C15.7904 31.1257 15.7963 31.1057 15.7975 31.0852C15.7987 31.0647 15.795 31.0443 15.7868 31.0252C15.7786 31.0061 15.766 30.9889 15.7498 30.9746C15.7337 30.9604 15.7144 30.9495 15.6932 30.9427C14.3263 30.472 13.0019 29.9041 11.7321 29.2441C11.7093 29.2322 11.6901 29.2153 11.6761 29.1949C11.6622 29.1745 11.6541 29.1513 11.6524 29.1274C11.6507 29.1034 11.6556 29.0794 11.6665 29.0576C11.6775 29.0357 11.6942 29.0167 11.7152 29.0023C11.9818 28.8224 12.2484 28.6347 12.5023 28.447C12.5252 28.4302 12.5527 28.4194 12.5818 28.416C12.611 28.4126 12.6406 28.4166 12.6674 28.4277C20.9769 31.8403 29.9762 31.8403 38.1884 28.4277C38.2152 28.416 38.2451 28.4114 38.2747 28.4145C38.3043 28.4176 38.3323 28.4282 38.3555 28.4451C38.6095 28.6347 38.874 28.8224 39.1427 29.0023C39.1639 29.0164 39.1809 29.0352 39.1922 29.0568C39.2035 29.0785 39.2087 29.1023 39.2075 29.1263C39.2062 29.1503 39.1985 29.1736 39.185 29.1941C39.1714 29.2147 39.1526 29.2318 39.13 29.2441C37.8646 29.9096 36.5485 30.4726 35.1667 30.9407C35.1455 30.9478 35.1262 30.9589 35.11 30.9733C35.0939 30.9877 35.0813 31.0051 35.0731 31.0244C35.0649 31.0436 35.0612 31.0642 35.0624 31.0848C35.0636 31.1054 35.0696 31.1256 35.08 31.1439C35.8417 32.473 36.7135 33.7382 37.6721 34.9396C37.692 34.9642 37.7198 34.9827 37.7516 34.9924C37.7834 35.002 37.8177 35.0025 37.8498 34.9937C42.4084 33.7394 46.7023 31.7896 50.55 29.2267C50.5688 29.2147 50.5846 29.1992 50.5962 29.1811C50.6079 29.1631 50.6152 29.143 50.6177 29.1222C51.6757 19.2673 48.8445 10.7048 43.1081 3.11724C43.094 3.09259 43.0707 3.07336 43.0425 3.06308ZM17.0221 23.9297C14.521 23.9297 12.4579 21.8616 12.4579 19.3254C12.4579 16.7872 14.4808 14.721 17.0221 14.721C19.5824 14.721 21.6265 16.8046 21.5863 19.3254C21.5863 21.8636 19.5634 23.9297 17.0221 23.9297ZM33.8971 23.9297C31.3939 23.9297 29.3329 21.8616 29.3329 19.3254C29.3329 16.7872 31.3537 14.721 33.8971 14.721C36.4575 14.721 38.5016 16.8046 38.4613 19.3254C38.4613 21.8636 36.4596 23.9297 33.8971 23.9297Z" fill="white" fill-opacity="0.7"/>
</g>
</g>
</g>
<defs>
<clipPath id="clip0_0_1">
<rect width="1920" height="5890" fill="white" transform="translate(-202 -5689)"/>
</clipPath>
</defs>
</svg>
