<svg width="39" height="35" viewBox="0 0 39 35" fill="none" xmlns="http://www.w3.org/2000/svg">
<rect width="39" height="35" fill="#1E1E1E"/>
<g id="Slide 16:9 - 2" clip-path="url(#clip0_0_1)">
<rect width="1920" height="5890" transform="translate(-401 -5689)" fill="#171041"/>
<g id="MORE UPDATE &#38; FOOTER ">
<rect id="Rectangle 43" x="-401" y="-958" width="1920" height="1159" fill="#140E3A"/>
<g id="socmed">
<path id="Vector" d="M19.3373 11.7807C15.8402 11.7807 12.9862 14.39 12.9862 17.5874C12.9862 20.7848 15.8402 23.3941 19.3373 23.3941C22.8345 23.3941 25.6884 20.7848 25.6884 17.5874C25.6884 14.39 22.8345 11.7807 19.3373 11.7807ZM38.3859 17.5874C38.3859 15.1828 38.4097 12.8001 38.262 10.3998C38.1143 7.61195 37.4187 5.13769 35.1889 3.09904C32.9543 1.05603 30.2528 0.424398 27.2035 0.289359C24.5735 0.15432 21.9673 0.1761 19.3421 0.1761C16.7121 0.1761 14.1059 0.15432 11.4806 0.289359C8.43133 0.424398 5.72508 1.06039 3.49529 3.09904C1.26073 5.14205 0.56987 7.61195 0.42217 10.3998C0.27447 12.8044 0.298292 15.1872 0.298292 17.5874C0.298292 19.9876 0.27447 22.3747 0.42217 24.775C0.56987 27.5629 1.26549 30.0371 3.49529 32.0758C5.72985 34.1188 8.43133 34.7504 11.4806 34.8854C14.1106 35.0205 16.7168 34.9987 19.3421 34.9987C21.9721 34.9987 24.5783 35.0205 27.2035 34.8854C30.2528 34.7504 32.9591 34.1144 35.1889 32.0758C37.4234 30.0328 38.1143 27.5629 38.262 24.775C38.4145 22.3747 38.3859 19.992 38.3859 17.5874ZM19.3373 26.5217C13.9296 26.5217 9.56529 22.5316 9.56529 17.5874C9.56529 12.6432 13.9296 8.65306 19.3373 8.65306C24.7451 8.65306 29.1094 12.6432 29.1094 17.5874C29.1094 22.5316 24.7451 26.5217 19.3373 26.5217ZM29.5096 10.3737C28.247 10.3737 27.2274 9.44151 27.2274 8.28714C27.2274 7.13278 28.247 6.20058 29.5096 6.20058C30.7722 6.20058 31.7918 7.13278 31.7918 8.28714C31.7922 8.56125 31.7334 8.83274 31.6188 9.08605C31.5043 9.33936 31.3362 9.56951 31.1242 9.76334C30.9122 9.95716 30.6604 10.1108 30.3834 10.2156C30.1063 10.3203 29.8094 10.3741 29.5096 10.3737Z" fill="white" fill-opacity="0.7"/>
</g>
</g>
</g>
<defs>
<clipPath id="clip0_0_1">
<rect width="1920" height="5890" fill="white" transform="translate(-401 -5689)"/>
</clipPath>
</defs>
</svg>
