<svg width="44" height="44" viewBox="0 0 49 49" fill="none" xmlns="http://www.w3.org/2000/svg">
<path d="M24.2904 16.1714C19.8836 16.1714 16.2871 19.7678 16.2871 24.1748C16.2871 28.5818 19.8836 32.1783 24.2904 32.1783C28.6973 32.1783 32.2936 28.5818 32.2936 24.1748C32.2936 19.7678 28.6973 16.1714 24.2904 16.1714ZM48.2942 24.1748C48.2942 20.8605 48.3242 17.5764 48.1381 14.268C47.9519 10.4255 47.0754 7.01521 44.2655 4.20532C41.4496 1.38941 38.0454 0.518823 34.2029 0.332697C30.8887 0.146571 27.6045 0.17659 24.2964 0.17659C20.9823 0.17659 17.6981 0.146571 14.3899 0.332697C10.5474 0.518823 7.13715 1.39542 4.32731 4.20532C1.51146 7.02122 0.640886 10.4255 0.454764 14.268C0.268642 17.5823 0.298661 20.8666 0.298661 24.1748C0.298661 27.483 0.268642 30.7732 0.454764 34.0816C0.640886 37.9242 1.51746 41.3344 4.32731 44.1444C7.14316 46.9602 10.5474 47.8308 14.3899 48.0169C17.704 48.2031 20.9882 48.173 24.2964 48.173C27.6106 48.173 30.8948 48.2031 34.2029 48.0169C38.0454 47.8308 41.4557 46.9542 44.2655 44.1444C47.0813 41.3285 47.9519 37.9242 48.1381 34.0816C48.3302 30.7732 48.2942 27.4891 48.2942 24.1748ZM24.2904 36.4891C17.476 36.4891 11.9763 30.9895 11.9763 24.1748C11.9763 17.3602 17.476 11.8605 24.2904 11.8605C31.1049 11.8605 36.6046 17.3602 36.6046 24.1748C36.6046 30.9895 31.1049 36.4891 24.2904 36.4891ZM37.1089 14.2321C35.5178 14.2321 34.233 12.9472 34.233 11.3561C34.233 9.76507 35.5178 8.48021 37.1089 8.48021C38.6999 8.48021 39.9847 9.76507 39.9847 11.3561C39.9852 11.7339 39.9111 12.1081 39.7667 12.4573C39.6224 12.8064 39.4106 13.1236 39.1435 13.3908C38.8763 13.6579 38.559 13.8697 38.21 14.0142C37.8608 14.1585 37.4866 14.2326 37.1089 14.2321Z" fill="url(#paint0_linear_13_34)"/>
<defs>
<linearGradient id="paint0_linear_13_34" x1="4.96331" y1="42.6616" x2="46.2682" y2="3.63944" gradientUnits="userSpaceOnUse">
<stop stop-color="#FFD87A"/>
<stop offset="0.140101" stop-color="#F3D56A"/>
<stop offset="0.249482" stop-color="#EBB565"/>
<stop offset="0.348446" stop-color="#E38A58"/>
<stop offset="0.487659" stop-color="#DF2D2D"/>
<stop offset="0.617875" stop-color="#CD3694"/>
<stop offset="0.888725" stop-color="#741FE0"/>
<stop offset="1" stop-color="#4200FF"/>
</linearGradient>
</defs>
</svg>
