<svg width="48" height="53" viewBox="0 0 48 53" fill="none" xmlns="http://www.w3.org/2000/svg">
<path fill-rule="evenodd" clip-rule="evenodd" d="M25.8852 28.0213C30.9582 27.7525 34.2949 30.0258 35.8952 34.8413C36.8073 39.5872 35.3773 43.4372 31.6052 46.3913C26.9856 49.146 22.5856 48.8527 18.4052 45.5113C16.0452 42.9805 15.422 40.0837 16.5352 36.8213C19.0918 41.4627 22.7218 42.5994 27.4252 40.2313C29.2906 38.4465 29.9138 36.2832 29.2952 33.7413C28.4812 31.4168 26.9779 29.6936 24.7852 28.5713C25.1845 28.4048 25.551 28.2215 25.8852 28.0213Z" fill="#171041"/>
<path fill-rule="evenodd" clip-rule="evenodd" d="M21.9059 4C23.0431 5.5332 23.7399 7.2932 23.9959 9.28C24.1928 11.7222 24.0461 14.1422 23.5559 16.54C23.0257 18.3513 22.3657 20.1113 21.5759 21.82C19.4855 25.2685 17.2855 28.6418 14.9759 31.94C13.5992 34.1789 13.0859 36.5989 13.4359 39.2C13.96 42.0554 14.73 44.8421 15.7459 47.56C11.9591 45.8596 9.28259 42.9996 7.71589 38.98C6.57699 35.3777 6.79699 31.8577 8.37589 28.42C10.7464 24.2902 13.4599 20.4034 16.5159 16.76C19.1898 12.8834 20.9863 8.6299 21.9059 4Z" fill="#171041"/>
</svg>
