<svg width="110" height="110" viewBox="0 0 110 110" fill="none" xmlns="http://www.w3.org/2000/svg">
<path fill-rule="evenodd" clip-rule="evenodd" d="M55.3297 14.8501C56.4669 16.3833 57.1637 18.1433 57.4197 20.1301C57.6166 22.5723 57.4699 24.9923 56.9797 27.3901C56.4495 29.2014 55.7895 30.9614 54.9997 32.6701C52.9093 36.1186 50.7093 39.4919 48.3997 42.7901C47.023 45.029 46.5097 47.449 46.8597 50.0501C47.3838 52.9055 48.1538 55.6922 49.1697 58.4101C45.3829 56.7097 42.7064 53.8497 41.1397 49.8301C40.0008 46.2278 40.2208 42.7078 41.7997 39.2701C44.1702 35.1403 46.8837 31.2535 49.9397 27.6101C52.6136 23.7335 54.4101 19.48 55.3297 14.8501Z" fill="#FBFBFB"/>
<path fill-rule="evenodd" clip-rule="evenodd" d="M59.0708 37.95C64.1438 37.6812 67.4805 39.9545 69.0808 44.77C69.9929 49.5159 68.5629 53.3659 64.7908 56.32C60.1712 59.0747 55.7712 58.7814 51.5908 55.44C49.2308 52.9092 48.6076 50.0124 49.7208 46.75C52.2774 51.3914 55.9074 52.5281 60.6108 50.16C62.4762 48.3752 63.0994 46.2119 62.4808 43.67C61.6668 41.3455 60.1635 39.6223 57.9708 38.5C58.3701 38.3335 58.7366 38.1502 59.0708 37.95Z" fill="#FBFBFB"/>
<path fill-rule="evenodd" clip-rule="evenodd" d="M22.7709 75.1299C22.7709 75.9366 22.7709 76.7431 22.7709 77.5499C20.0185 77.4775 17.3051 77.551 14.6309 77.7699C14.6309 78.2831 14.6309 78.7966 14.6309 79.3099C17.4176 79.3099 20.2043 79.3099 22.9909 79.3099C22.9909 81.5099 22.9909 83.7099 22.9909 85.9099C19.3976 85.9099 15.8043 85.9099 12.2109 85.9099C12.2109 85.1031 12.2109 84.2966 12.2109 83.4899C14.9634 83.5623 17.6767 83.4888 20.3509 83.2699C20.3509 82.7566 20.3509 82.2431 20.3509 81.7299C17.6376 81.7299 14.9243 81.7299 12.2109 81.7299C12.2109 79.5299 12.2109 77.3299 12.2109 75.1299C15.7309 75.1299 19.2509 75.1299 22.7709 75.1299Z" fill="#FDFDFD"/>
<path fill-rule="evenodd" clip-rule="evenodd" d="M35.3093 83.7099C32.5226 83.7099 29.736 83.7099 26.9493 83.7099C26.9493 84.4431 26.9493 85.1766 26.9493 85.9099C26.1426 85.9099 25.336 85.9099 24.5293 85.9099C24.5293 82.3166 24.5293 78.7231 24.5293 75.1299C28.1226 75.1299 31.716 75.1299 35.3093 75.1299C35.3093 77.9899 35.3093 80.8499 35.3093 83.7099Z" fill="#FCFCFC"/>
<path fill-rule="evenodd" clip-rule="evenodd" d="M45.2096 85.9099C45.2096 85.1766 45.2096 84.4431 45.2096 83.7099C43.2628 83.6382 41.3561 83.7114 39.4896 83.9299C39.4896 84.5899 39.4896 85.2499 39.4896 85.9099C38.6096 85.9099 37.7296 85.9099 36.8496 85.9099C36.8496 82.3166 36.8496 78.7231 36.8496 75.1299C40.4429 75.1299 44.0363 75.1299 47.6296 75.1299C47.6296 78.7231 47.6296 82.3166 47.6296 85.9099C46.8229 85.9099 46.0163 85.9099 45.2096 85.9099Z" fill="#FCFCFC"/>
<path fill-rule="evenodd" clip-rule="evenodd" d="M49.1699 75.1299C52.7632 75.1299 56.3567 75.1299 59.9499 75.1299C59.9499 78.0631 59.9499 80.9966 59.9499 83.9299C59.3588 83.8938 58.772 83.9305 58.1899 84.0399C58.7767 84.6266 59.3632 85.2131 59.9499 85.7999C58.9232 85.9466 57.8967 85.9466 56.8699 85.7999C56.2832 85.2131 55.6967 84.6266 55.1099 84.0399C54.0123 83.9301 52.9123 83.8934 51.8099 83.9299C51.8099 84.5899 51.8099 85.2499 51.8099 85.9099C50.9299 85.9099 50.0499 85.9099 49.1699 85.9099C49.1699 82.3166 49.1699 78.7231 49.1699 75.1299Z" fill="#F8F8F8"/>
<path fill-rule="evenodd" clip-rule="evenodd" d="M61.7109 75.1299C65.2309 75.1299 68.7509 75.1299 72.2709 75.1299C72.2709 75.9366 72.2709 76.7431 72.2709 77.5499C70.9091 77.4788 69.5891 77.5521 68.3109 77.7699C68.3109 80.4831 68.3109 83.1966 68.3109 85.9099C67.4309 85.9099 66.5509 85.9099 65.6709 85.9099C65.6709 83.1966 65.6709 80.4831 65.6709 77.7699C64.3927 77.5521 63.0727 77.4788 61.7109 77.5499C61.7109 76.7431 61.7109 75.9366 61.7109 75.1299Z" fill="#FAFAFA"/>
<path fill-rule="evenodd" clip-rule="evenodd" d="M82.1693 83.9299C80.3028 83.7114 78.3961 83.6382 76.4493 83.7099C76.4493 84.4431 76.4493 85.1766 76.4493 85.9099C75.6426 85.9099 74.836 85.9099 74.0293 85.9099C74.0293 82.3166 74.0293 78.7231 74.0293 75.1299C77.6226 75.1299 81.216 75.1299 84.8093 75.1299C84.8093 78.7231 84.8093 82.3166 84.8093 85.9099C83.9293 85.9099 83.0493 85.9099 82.1693 85.9099C82.1693 85.2499 82.1693 84.5899 82.1693 83.9299Z" fill="#FCFCFC"/>
<path fill-rule="evenodd" clip-rule="evenodd" d="M86.3496 75.1299C87.2296 75.1299 88.1096 75.1299 88.9896 75.1299C88.9896 76.5232 88.9896 77.9167 88.9896 79.3099C90.092 79.3465 91.192 79.3097 92.2896 79.1999C93.0411 77.8432 93.8476 76.5232 94.7096 75.2399C95.6629 75.0932 96.6163 75.0932 97.5696 75.2399C96.5283 76.9925 95.5751 78.789 94.7096 80.6299C95.6037 82.3442 96.5569 84.0307 97.5696 85.6899C96.6247 85.9454 95.6712 85.9821 94.7096 85.7999C93.8476 84.5167 93.0411 83.1967 92.2896 81.8399C91.192 81.7302 90.092 81.6934 88.9896 81.7299C88.9896 83.1232 88.9896 84.5167 88.9896 85.9099C88.1096 85.9099 87.2296 85.9099 86.3496 85.9099C86.3496 82.3167 86.3496 78.7232 86.3496 75.1299Z" fill="#F9F9F9"/>
<path fill-rule="evenodd" clip-rule="evenodd" d="M22.7709 75.1299C22.9871 75.9654 23.0606 76.8454 22.9909 77.7699C20.2775 77.7699 17.5642 77.7699 14.8509 77.7699C14.7775 77.7699 14.7042 77.7699 14.6309 77.7699C17.305 77.551 20.0184 77.4775 22.7709 77.5499C22.7709 76.7431 22.7709 75.9366 22.7709 75.1299Z" fill="#A0A0A0"/>
<path fill-rule="evenodd" clip-rule="evenodd" d="M61.7103 75.1299C61.7103 75.9366 61.7103 76.7431 61.7103 77.5499C63.0721 77.4788 64.3921 77.5521 65.6703 77.7699C64.2771 77.7699 62.8836 77.7699 61.4903 77.7699C61.4206 76.8454 61.4941 75.9654 61.7103 75.1299Z" fill="#8E8E8E"/>
<path fill-rule="evenodd" clip-rule="evenodd" d="M72.2705 75.1299C72.4868 75.9654 72.5603 76.8454 72.4905 77.7699C71.0973 77.7699 69.7038 77.7699 68.3105 77.7699C69.5887 77.5521 70.9087 77.4788 72.2705 77.5499C72.2705 76.7431 72.2705 75.9366 72.2705 75.1299Z" fill="#9F9F9F"/>
<path fill-rule="evenodd" clip-rule="evenodd" d="M32.6699 77.77C30.8367 77.77 29.0032 77.77 27.1699 77.77C27.1699 78.9433 27.1699 80.1168 27.1699 81.29C26.9524 80.0855 26.8791 78.8388 26.9499 77.55C28.8967 77.4783 30.8035 77.5516 32.6699 77.77Z" fill="#8D8D8D"/>
<path fill-rule="evenodd" clip-rule="evenodd" d="M32.6699 77.77C32.6699 78.9433 32.6699 80.1168 32.6699 81.29C30.8367 81.29 29.0032 81.29 27.1699 81.29C27.1699 80.1168 27.1699 78.9433 27.1699 77.77C29.0032 77.77 30.8367 77.77 32.6699 77.77Z" fill="#202359"/>
<path fill-rule="evenodd" clip-rule="evenodd" d="M39.4902 77.77C41.3235 77.77 43.157 77.77 44.9902 77.77C44.9902 78.9433 44.9902 80.1168 44.9902 81.29C43.157 81.29 41.3235 81.29 39.4902 81.29C39.4902 80.1168 39.4902 78.9433 39.4902 77.77Z" fill="#202359"/>
<path fill-rule="evenodd" clip-rule="evenodd" d="M39.4902 77.77C41.3567 77.5516 43.2635 77.4783 45.2102 77.55C45.2811 78.8388 45.2078 80.0855 44.9902 81.29C44.9902 80.1168 44.9902 78.9433 44.9902 77.77C43.157 77.77 41.3235 77.77 39.4902 77.77Z" fill="#8C8C8C"/>
<path fill-rule="evenodd" clip-rule="evenodd" d="M51.8105 77.77C53.7173 77.77 55.6238 77.77 57.5305 77.77C57.5305 78.9433 57.5305 80.1168 57.5305 81.29C55.6238 81.29 53.7173 81.29 51.8105 81.29C51.8105 80.1168 51.8105 78.9433 51.8105 77.77Z" fill="#202359"/>
<path fill-rule="evenodd" clip-rule="evenodd" d="M82.1699 77.77C80.3367 77.77 78.5032 77.77 76.6699 77.77C76.6699 78.9433 76.6699 80.1168 76.6699 81.29C76.4524 80.0855 76.3791 78.8388 76.4499 77.55C78.3967 77.4783 80.3035 77.5516 82.1699 77.77Z" fill="#8D8D8D"/>
<path fill-rule="evenodd" clip-rule="evenodd" d="M82.1699 77.77C82.1699 78.9433 82.1699 80.1168 82.1699 81.29C80.3367 81.29 78.5032 81.29 76.6699 81.29C76.6699 80.1168 76.6699 78.9433 76.6699 77.77C78.5032 77.77 80.3367 77.77 82.1699 77.77Z" fill="#202359"/>
<path fill-rule="evenodd" clip-rule="evenodd" d="M14.6309 77.77C14.7042 77.77 14.7775 77.77 14.8509 77.77C14.8509 78.21 14.8509 78.65 14.8509 79.09C17.6033 79.0176 20.3167 79.0911 22.9909 79.31C20.2042 79.31 17.4175 79.31 14.6309 79.31C14.6309 78.7968 14.6309 78.2833 14.6309 77.77Z" fill="#4D4D4D"/>
<path fill-rule="evenodd" clip-rule="evenodd" d="M20.3503 83.27C17.6761 83.4889 14.9628 83.5624 12.2103 83.49C12.2103 84.2968 12.2103 85.1033 12.2103 85.91C11.994 85.0745 11.9206 84.1945 11.9903 83.27C14.777 83.27 17.5636 83.27 20.3503 83.27Z" fill="#8E8E8E"/>
<path fill-rule="evenodd" clip-rule="evenodd" d="M35.3092 83.71C32.6351 83.9289 29.9216 84.0023 27.1692 83.93C27.2374 84.6368 27.1642 85.2968 26.9492 85.91C26.9492 85.1767 26.9492 84.4432 26.9492 83.71C29.736 83.71 32.5225 83.71 35.3092 83.71Z" fill="#A7A7A7"/>
<path fill-rule="evenodd" clip-rule="evenodd" d="M39.4902 83.93C41.3567 83.7115 43.2635 83.6382 45.2102 83.71C45.2102 84.4432 45.2102 85.1767 45.2102 85.91C44.9953 85.2968 44.922 84.6368 44.9902 83.93C43.157 83.93 41.3235 83.93 39.4902 83.93Z" fill="#A5A5A5"/>
<path fill-rule="evenodd" clip-rule="evenodd" d="M82.1692 83.93C80.336 83.93 78.5025 83.93 76.6692 83.93C76.7374 84.6368 76.6642 85.2968 76.4492 85.91C76.4492 85.1767 76.4492 84.4432 76.4492 83.71C78.396 83.6382 80.3027 83.7115 82.1692 83.93Z" fill="#A6A6A6"/>
</svg>
