<svg width="44" height="30" viewBox="0 0 48 35" fill="none" xmlns="http://www.w3.org/2000/svg">
<path d="M47.5072 4.3116C45.783 4.99162 43.9067 5.48103 41.974 5.67164C43.9805 4.58173 45.4832 2.85986 46.2 0.829086C44.317 1.85318 42.2543 2.57129 40.1032 2.95157C39.2042 2.07283 38.1169 1.37279 36.909 0.895065C35.7011 0.41734 34.3985 0.172168 33.0824 0.174826C27.7577 0.174826 23.4753 4.12099 23.4753 8.96355C23.4753 9.64356 23.5655 10.3236 23.712 10.9778C15.7389 10.5966 8.62796 7.1141 3.90047 1.78214C3.03907 3.12732 2.58767 4.65896 2.59323 6.21771C2.59323 9.26749 4.28927 11.9567 6.87558 13.5382C5.35143 13.4833 3.86296 13.1003 2.53125 12.4203V12.5285C2.53125 16.7992 5.83317 20.3384 10.2338 21.1524C9.40757 21.3486 8.55757 21.449 7.70388 21.4512C7.07843 21.4512 6.48679 21.3945 5.88951 21.3172C7.1066 24.7997 10.6508 27.3292 14.8712 27.4116C11.5693 29.7762 7.43341 31.1672 2.94258 31.1672C2.13682 31.1672 1.39304 31.1414 0.621094 31.059C4.88091 33.5575 9.93521 35 15.3783 35C33.0486 35 42.7177 21.616 42.7177 9.99903C42.7177 9.61781 42.7177 9.23658 42.6896 8.85536C44.5603 7.60351 46.2 6.05286 47.5072 4.3116Z" fill="	#1DA1F2"/>
</svg>
