<svg width="55" height="35" viewBox="0 0 55 35" fill="none" xmlns="http://www.w3.org/2000/svg">
<path d="M27.4597 0.174805H27.7613C30.5472 0.1841 44.6629 0.277059 48.4689 1.21284C49.6195 1.49843 50.668 2.05511 51.5095 2.82723C52.3511 3.59936 52.9562 4.5599 53.2645 5.61285C53.6068 6.79032 53.8475 8.34892 54.0101 9.95709L54.044 10.2793L54.1186 11.085L54.1457 11.4072C54.366 14.2394 54.3931 16.8918 54.3965 17.4712V17.7036C54.3931 18.3047 54.3626 21.1368 54.1186 24.0867L54.0915 24.4121L54.061 24.7343C53.8915 26.5067 53.6407 28.2667 53.2645 29.562C52.9572 30.6153 52.3523 31.5763 51.5106 32.3486C50.6689 33.1208 49.62 33.6772 48.4689 33.962C44.5375 34.9287 29.5949 34.9969 27.5241 35H27.0428C25.9956 35 21.6643 34.9814 17.1229 34.8389L16.5467 34.8203L16.2519 34.8079L15.6723 34.7862L15.0928 34.7645C11.3308 34.6127 7.74853 34.3679 6.09803 33.9589C4.94738 33.6744 3.8987 33.1185 3.05704 32.3468C2.21538 31.5751 1.6103 30.6148 1.30241 29.562C0.926215 28.2698 0.675419 26.5067 0.505963 24.7343L0.47885 24.409L0.451737 24.0867C0.284475 21.9871 0.19179 19.8831 0.173828 17.778L0.173828 17.3968C0.180606 16.7306 0.207719 14.4284 0.390732 11.8875L0.414456 11.5684L0.424624 11.4072L0.451737 11.085L0.526298 10.2793L0.560189 9.95709C0.722867 8.34892 0.963495 6.78722 1.3058 5.61285C1.61317 4.55947 2.21802 3.59848 3.05972 2.82622C3.90141 2.05396 4.95036 1.49757 6.10141 1.21284C7.75192 0.810019 11.3342 0.56213 15.0962 0.4072L15.6723 0.38551L16.2552 0.366919L16.5467 0.357623L17.1263 0.335933C20.3517 0.241036 23.5785 0.188354 26.8056 0.177903H27.4597V0.174805ZM21.8643 10.1213V25.0504L35.9529 17.589L21.8643 10.1213Z" fill="white" fill-opacity="0.7"/>
</svg>
